<svg width="12" height="18" viewBox="0 0 12 18" fill="none" xmlns="http://www.w3.org/2000/svg">
<path d="M10.2768 8.15775L10.2768 8.15774C10.3334 8.1227 10.3957 8.09781 10.4587 8.08165C10.522 8.06542 10.588 8.05749 10.6535 8.05749C10.7189 8.05749 10.7849 8.06542 10.8482 8.08165C10.9112 8.09781 10.9735 8.1227 11.0301 8.15774C11.0864 8.1926 11.1404 8.23964 11.1814 8.30086C11.2231 8.36326 11.25 8.43887 11.25 8.52199C11.25 8.60511 11.2231 8.68072 11.1814 8.74311C11.1404 8.80434 11.0864 8.85138 11.0301 8.88624L6.87696 11.4569C6.87691 11.4569 6.87686 11.4569 6.87681 11.457C6.82022 11.492 6.75796 11.517 6.69494 11.5332C6.6316 11.5494 6.56557 11.5574 6.50009 11.5574C6.43461 11.5574 6.36858 11.5494 6.30525 11.5332C6.24225 11.517 6.18003 11.4921 6.12347 11.457L10.2768 8.15775ZM10.2768 8.15775L6.50009 10.4958L10.2768 8.15775ZM1.97011 8.15774C1.91379 8.19254 1.85977 8.23952 1.81878 8.30067C1.77693 8.36308 1.75 8.43876 1.75 8.52199C1.75 8.60521 1.77693 8.68089 1.81878 8.74331C1.85977 8.80446 1.91379 8.85143 1.97011 8.88624C1.97013 8.88625 1.97015 8.88627 1.97018 8.88628C1.97024 8.88632 1.97029 8.88635 1.97035 8.88639L6.12323 11.4569L2.7236 8.15789L2.59178 8.37031L2.72337 8.15775L2.72347 8.15781C2.66688 8.12271 2.60461 8.09778 2.54158 8.08159C2.47824 8.06532 2.41222 8.05737 2.34673 8.05737C2.28125 8.05737 2.21522 8.06532 2.15189 8.08159C2.0889 8.09777 2.02667 8.12268 1.97011 8.15774ZM1.97011 8.15774C1.97003 8.15779 1.96995 8.15784 1.96987 8.15789L2.10168 8.37031L1.97035 8.15759C1.97027 8.15764 1.97019 8.15769 1.97011 8.15774Z" fill="#5E76C3" stroke="#5E76C3" stroke-width="0.5"/>
</svg>
