<svg width="12" height="18" viewBox="0 0 12 18" fill="none" xmlns="http://www.w3.org/2000/svg">
<path d="M10.2768 7.85037L10.2768 7.85036C10.3334 7.81533 10.3957 7.79044 10.4587 7.77427C10.522 7.75805 10.588 7.75011 10.6535 7.75011C10.7189 7.75011 10.7849 7.75805 10.8482 7.77427C10.9112 7.79044 10.9735 7.81533 11.0301 7.85036C11.0864 7.88522 11.1404 7.93226 11.1814 7.99349C11.2231 8.05588 11.25 8.13149 11.25 8.21461C11.25 8.29773 11.2231 8.37334 11.1814 8.43574C11.1404 8.49696 11.0864 8.544 11.0301 8.57886L6.87696 11.1495C6.87691 11.1495 6.87686 11.1495 6.87681 11.1496C6.82022 11.1847 6.75796 11.2096 6.69494 11.2258C6.6316 11.242 6.56557 11.25 6.50009 11.25C6.43461 11.25 6.36858 11.242 6.30525 11.2258C6.24225 11.2096 6.18003 11.1847 6.12347 11.1496L10.2768 7.85037ZM10.2768 7.85037L6.50009 10.1884L10.2768 7.85037ZM1.97011 7.85036C1.91379 7.88517 1.85977 7.93214 1.81878 7.99329C1.77693 8.05571 1.75 8.13139 1.75 8.21461C1.75 8.29784 1.77693 8.37352 1.81878 8.43593C1.85977 8.49708 1.91379 8.54406 1.97011 8.57886C1.97013 8.57888 1.97015 8.57889 1.97018 8.57891C1.97024 8.57894 1.97029 8.57898 1.97035 8.57901L6.12323 11.1495L2.7236 7.85051L2.59178 8.06294L2.72337 7.85037L2.72347 7.85044C2.66688 7.81534 2.60461 7.79041 2.54158 7.77422C2.47824 7.75795 2.41222 7.75 2.34673 7.75C2.28125 7.75 2.21522 7.75795 2.15189 7.77422C2.0889 7.7904 2.02667 7.81531 1.97011 7.85036ZM1.97011 7.85036C1.97003 7.85041 1.96995 7.85046 1.96987 7.85051L2.10168 8.06294L1.97035 7.85022C1.97027 7.85026 1.97019 7.85031 1.97011 7.85036Z" fill="#5E76C3" stroke="#5E76C3" stroke-width="0.5"/>
</svg>
