<svg width="19" height="19" viewBox="0 0 19 19" fill="none" xmlns="http://www.w3.org/2000/svg">
<g clip-path="url(#clip0_243_30888)">
<path d="M0.697018 11.1546L3.76077 14.25C3.83436 14.3242 3.92192 14.3831 4.01839 14.4233C4.11487 14.4635 4.21834 14.4842 4.32285 14.4842C4.42736 14.4842 4.53084 14.4635 4.62731 14.4233C4.72378 14.3831 4.81134 14.3242 4.88493 14.25C4.95914 14.1764 5.01803 14.0889 5.05822 13.9924C5.09842 13.8959 5.11911 13.7925 5.11911 13.688C5.11911 13.5835 5.09842 13.48 5.05822 13.3835C5.01803 13.287 4.95914 13.1995 4.88493 13.1259L2.0666 10.2917H18.2087C18.4186 10.2917 18.62 10.2083 18.7685 10.0598C18.9169 9.91137 19.0004 9.71001 19.0004 9.50004C19.0004 9.29008 18.9169 9.08872 18.7685 8.94025C18.62 8.79178 18.4186 8.70838 18.2087 8.70838H2.0191L4.88493 5.84254C5.02529 5.69531 5.10359 5.4997 5.10359 5.29629C5.10359 5.09288 5.02529 4.89727 4.88493 4.75004C4.81134 4.67584 4.72378 4.61695 4.62731 4.57675C4.53084 4.53656 4.42736 4.51587 4.32285 4.51587C4.21834 4.51587 4.11487 4.53656 4.01839 4.57675C3.92192 4.61695 3.83436 4.67584 3.76077 4.75004L0.697018 7.79796C0.252258 8.24327 0.00244141 8.84692 0.00244141 9.47629C0.00244141 10.1057 0.252258 10.7093 0.697018 11.1546V11.1546Z" fill="#6A737A"/>
</g>
<defs>
<clipPath id="clip0_243_30888">
<rect width="19" height="19" fill="white"/>
</clipPath>
</defs>
</svg>
