<svg width="36" height="35" viewBox="0 0 36 35" fill="none" xmlns="http://www.w3.org/2000/svg">
<ellipse cx="18.4117" cy="17.4648" rx="17.5855" ry="17.2394" fill="#017EFA"/>
<path fill-rule="evenodd" clip-rule="evenodd" d="M12.5293 22.8811C12.8846 23.4204 13.3055 23.9186 13.7849 24.3639C14.9419 25.439 16.3896 26.1603 17.9521 26.4435C19.5145 26.7267 21.1273 26.5601 22.5963 25.9631C24.0654 25.3661 25.3296 24.3633 26.2338 23.0731C27.1382 21.7827 27.6431 20.261 27.6851 18.692C27.727 17.1229 27.3041 15.577 26.4696 14.2415C25.6352 12.9061 24.4259 11.8394 22.9903 11.1675C21.9946 10.7015 20.9187 10.4389 19.8273 10.3893L20.3907 12.4508C20.9951 12.5412 21.5856 12.7183 22.1425 12.9789C23.2328 13.4892 24.1459 14.2968 24.7735 15.3013C25.401 16.3055 25.7172 17.4646 25.6858 18.6385C25.6544 19.8125 25.2767 20.9541 24.596 21.9252C23.9152 22.8966 22.9598 23.6565 21.8433 24.1103C20.7266 24.5641 19.4987 24.6912 18.3087 24.4756C17.1189 24.2599 16.0207 23.7113 15.1462 22.8988C14.955 22.7211 14.7763 22.5325 14.6109 22.3343L12.5293 22.8811Z" fill="white"/>
<path d="M13.1487 10.4336C13.9636 9.8206 14.8656 9.33113 15.8243 8.97984C16.2425 8.82661 16.4516 8.74999 16.6467 8.85068C16.8419 8.95138 16.9045 9.18046 17.0297 9.63863L19.1797 17.5046C19.3051 17.9635 19.3678 18.1929 19.2636 18.3735C19.1593 18.5542 18.9292 18.6146 18.4691 18.7355L10.4117 20.852C9.95195 20.9727 9.72209 21.0331 9.53699 20.9136C9.35188 20.7941 9.31485 20.5751 9.24079 20.137C9.07437 19.1528 9.05674 18.148 9.19006 17.1552C9.36737 15.8349 9.80823 14.5617 10.4875 13.4084C11.1667 12.2551 12.071 11.2443 13.1487 10.4336Z" stroke="white" stroke-width="2"/>
</svg>
