<svg width="21" height="22" viewBox="0 0 21 22" fill="none" xmlns="http://www.w3.org/2000/svg">
<path fill-rule="evenodd" clip-rule="evenodd" d="M11.6113 11.2878L15.7701 7.12901C16.0773 6.8218 16.0773 6.32523 15.7701 6.01801C15.4629 5.71079 14.9663 5.71079 14.6591 6.01801L10.5003 10.1768L6.34142 6.01801C6.03421 5.71079 5.53763 5.71079 5.23041 6.01801C4.9232 6.32523 4.9232 6.8218 5.23041 7.12901L9.38924 11.2878L5.23041 15.4466C4.9232 15.7538 4.9232 16.2504 5.23041 16.5576C5.38363 16.7108 5.58477 16.7878 5.78592 16.7878C5.98706 16.7878 6.18821 16.7108 6.34142 16.5576L10.5003 12.3988L14.6591 16.5576C14.8123 16.7108 15.0134 16.7878 15.2146 16.7878C15.4157 16.7878 15.6169 16.7108 15.7701 16.5576C16.0773 16.2504 16.0773 15.7538 15.7701 15.4466L11.6113 11.2878Z" fill="#1E293B"/>
</svg>
