<svg width="20" height="21" viewBox="0 0 20 21" fill="none" xmlns="http://www.w3.org/2000/svg">
<path fill-rule="evenodd" clip-rule="evenodd" d="M10.9814 2.68658C11.4064 2.89912 11.7511 3.24378 11.9636 3.66884L18.1003 15.9422C18.6428 17.0272 18.203 18.3465 17.1181 18.889C16.8131 19.0415 16.4768 19.1209 16.1358 19.1209H3.86241C2.64937 19.1209 1.66602 18.1375 1.66602 16.9245C1.66602 16.5835 1.7454 16.2472 1.8979 15.9422L8.03459 3.66884C8.57708 2.58387 9.89639 2.1441 10.9814 2.68658ZM9.36371 4.51384L3.4077 16.4259C3.35837 16.5245 3.33268 16.6333 3.33268 16.7436C3.33268 17.1361 3.65082 17.4542 4.04326 17.4542H15.9553C16.0656 17.4542 16.1744 17.4285 16.2731 17.3792C16.6241 17.2037 16.7663 16.7769 16.5908 16.4259L10.6348 4.51384C10.5661 4.37633 10.4546 4.26482 10.317 4.19606C9.96604 4.02056 9.53922 4.16283 9.36371 4.51384ZM9.99935 14.1209C10.4596 14.1209 10.8327 14.494 10.8327 14.9542C10.8327 15.4145 10.4596 15.7876 9.99935 15.7876C9.53911 15.7876 9.16602 15.4145 9.16602 14.9542C9.16602 14.494 9.53911 14.1209 9.99935 14.1209ZM9.99935 7.45422C10.4596 7.45422 10.8327 7.82732 10.8327 8.28756V11.6209C10.8327 12.0811 10.4596 12.4542 9.99935 12.4542C9.53911 12.4542 9.16602 12.0811 9.16602 11.6209V8.28756C9.16602 7.82732 9.53911 7.45422 9.99935 7.45422Z" fill="white"/>
</svg>
