<svg width="20" height="20" viewBox="0 0 20 20" fill="none" xmlns="http://www.w3.org/2000/svg">
<path fill-rule="evenodd" clip-rule="evenodd" d="M10.9814 1.89899C11.4064 2.11152 11.7511 2.45618 11.9636 2.88124L18.1003 15.1546C18.6428 16.2396 18.203 17.5589 17.1181 18.1014C16.8131 18.2539 16.4768 18.3333 16.1358 18.3333H3.86241C2.64937 18.3333 1.66602 17.3499 1.66602 16.1369C1.66602 15.7959 1.7454 15.4596 1.8979 15.1546L8.03459 2.88124C8.57708 1.79627 9.89639 1.3565 10.9814 1.89899ZM9.36371 3.72624L3.4077 15.6383C3.35837 15.7369 3.33268 15.8457 3.33268 15.9561C3.33268 16.3485 3.65082 16.6666 4.04326 16.6666H15.9553C16.0656 16.6666 16.1744 16.6409 16.2731 16.5916C16.6241 16.4161 16.7663 15.9893 16.5908 15.6383L10.6348 3.72624C10.5661 3.58873 10.4546 3.47722 10.317 3.40847C9.96604 3.23296 9.53922 3.37524 9.36371 3.72624ZM9.99935 13.3333C10.4596 13.3333 10.8327 13.7064 10.8327 14.1666C10.8327 14.6269 10.4596 15 9.99935 15C9.53911 15 9.16602 14.6269 9.16602 14.1666C9.16602 13.7064 9.53911 13.3333 9.99935 13.3333ZM9.99935 6.66663C10.4596 6.66663 10.8327 7.03972 10.8327 7.49996V10.8333C10.8327 11.2935 10.4596 11.6666 9.99935 11.6666C9.53911 11.6666 9.16602 11.2935 9.16602 10.8333V7.49996C9.16602 7.03972 9.53911 6.66663 9.99935 6.66663Z" fill="white"/>
</svg>
