<svg width="21" height="21" viewBox="0 0 21 21" fill="none" xmlns="http://www.w3.org/2000/svg">
<path fill-rule="evenodd" clip-rule="evenodd" d="M11.6113 10.5002L15.7701 6.34142C16.0773 6.0342 16.0773 5.53763 15.7701 5.23041C15.4629 4.9232 14.9663 4.9232 14.6591 5.23041L10.5003 9.38922L6.34142 5.23041C6.03421 4.9232 5.53763 4.9232 5.23041 5.23041C4.9232 5.53763 4.9232 6.0342 5.23041 6.34142L9.38924 10.5002L5.23041 14.659C4.9232 14.9662 4.9232 15.4628 5.23041 15.77C5.38363 15.9232 5.58477 16.0002 5.78592 16.0002C5.98706 16.0002 6.18821 15.9232 6.34142 15.77L10.5003 11.6112L14.6591 15.77C14.8123 15.9232 15.0134 16.0002 15.2146 16.0002C15.4157 16.0002 15.6169 15.9232 15.7701 15.77C16.0773 15.4628 16.0773 14.9662 15.7701 14.659L11.6113 10.5002Z" fill="#1E293B"/>
</svg>
