<svg width="11" height="11" viewBox="0 0 11 11" fill="none" xmlns="http://www.w3.org/2000/svg">
<path fill-rule="evenodd" clip-rule="evenodd" d="M6.61126 5.50022L10.7701 1.34142C11.0773 1.0342 11.0773 0.537628 10.7701 0.230412C10.4629 -0.0768039 9.96629 -0.0768039 9.65908 0.230412L5.50025 4.38922L1.34142 0.230412C1.03421 -0.0768039 0.53763 -0.0768039 0.230413 0.230412C-0.0768043 0.537628 -0.0768043 1.0342 0.230413 1.34142L4.38924 5.50022L0.230413 9.65903C-0.0768043 9.96624 -0.0768043 10.4628 0.230413 10.77C0.383629 10.9232 0.584774 11.0002 0.785918 11.0002C0.987063 11.0002 1.18821 10.9232 1.34142 10.77L5.50025 6.61123L9.65908 10.77C9.81229 10.9232 10.0134 11.0002 10.2146 11.0002C10.4157 11.0002 10.6169 10.9232 10.7701 10.77C11.0773 10.4628 11.0773 9.96624 10.7701 9.65903L6.61126 5.50022Z" fill="#1E293B"/>
</svg>
