<svg width="20" height="20" viewBox="0 0 20 20" fill="none" xmlns="http://www.w3.org/2000/svg">
<path d="M16.6663 9.16667C16.6663 7.39856 15.964 5.70286 14.7137 4.45262C13.4635 3.20238 11.7678 2.5 9.99967 2.5C8.23156 2.5 6.53587 3.20238 5.28563 4.45262C4.03539 5.70286 3.33301 7.39856 3.33301 9.16667" stroke="#BFBFBF" stroke-width="1.5" stroke-linecap="round" stroke-linejoin="round"/>
<path d="M16.6665 15V15.4167C16.6665 15.8587 16.4909 16.2827 16.1783 16.5952C15.8658 16.9078 15.4419 17.0834 14.9998 17.0834H12.0832M1.6665 12.865V11.3017C1.66656 10.93 1.79084 10.5691 2.01959 10.2761C2.24834 9.98323 2.56844 9.77517 2.929 9.68504L4.379 9.32171C4.45268 9.30336 4.52958 9.30203 4.60385 9.31782C4.67812 9.33362 4.74781 9.36612 4.80765 9.41286C4.86749 9.45961 4.91589 9.51937 4.94919 9.58761C4.98249 9.65585 4.99981 9.73077 4.99984 9.80671V14.3592C4.99997 14.4353 4.98273 14.5104 4.94944 14.5788C4.91615 14.6473 4.86768 14.7072 4.80772 14.754C4.74777 14.8009 4.67791 14.8334 4.60347 14.8492C4.52903 14.865 4.45198 14.8636 4.37817 14.845L2.92817 14.4825C2.56776 14.3923 2.24785 14.1841 2.01926 13.8912C1.79067 13.5983 1.66651 13.2374 1.6665 12.8659V12.865ZM18.3332 12.865V11.3017C18.3331 10.93 18.2088 10.5691 17.9801 10.2761C17.7513 9.98323 17.4312 9.77517 17.0707 9.68504L15.6207 9.32171C15.547 9.30336 15.4701 9.30203 15.3958 9.31782C15.3216 9.33362 15.2519 9.36612 15.192 9.41286C15.1322 9.45961 15.0838 9.51937 15.0505 9.58761C15.0172 9.65585 14.9999 9.73077 14.9998 9.80671V14.3592C14.9997 14.4352 15.017 14.5102 15.0502 14.5786C15.0835 14.6469 15.1318 14.7068 15.1917 14.7536C15.2516 14.8005 15.3213 14.833 15.3956 14.8489C15.47 14.8647 15.5469 14.8634 15.6207 14.845L17.0707 14.4825C17.4312 14.3924 17.7513 14.1844 17.9801 13.8914C18.2088 13.5985 18.3331 13.2375 18.3332 12.8659V12.865Z" stroke="#BFBFBF" stroke-width="1.5"/>
<path d="M11.25 18.3334H8.75C8.41848 18.3334 8.10054 18.2017 7.86612 17.9673C7.6317 17.7328 7.5 17.4149 7.5 17.0834C7.5 16.7519 7.6317 16.4339 7.86612 16.1995C8.10054 15.9651 8.41848 15.8334 8.75 15.8334H11.25C11.5815 15.8334 11.8995 15.9651 12.1339 16.1995C12.3683 16.4339 12.5 16.7519 12.5 17.0834C12.5 17.4149 12.3683 17.7328 12.1339 17.9673C11.8995 18.2017 11.5815 18.3334 11.25 18.3334Z" stroke="#BFBFBF" stroke-width="1.5"/>
</svg>
