<svg width="12" height="13" viewBox="0 0 12 13" fill="none" xmlns="http://www.w3.org/2000/svg">
<path fill-rule="evenodd" clip-rule="evenodd" d="M7.49212 6.80822L11.6509 2.27134C11.9582 1.9362 11.9582 1.39449 11.6509 1.05934C11.3437 0.724197 10.8472 0.724197 10.5399 1.05934L6.38111 5.59621L2.22228 1.05934C1.91507 0.724197 1.41849 0.724197 1.11127 1.05934C0.804055 1.39449 0.804055 1.9362 1.11127 2.27134L5.2701 6.80822L1.11127 11.3451C0.804055 11.6802 0.804055 12.2219 1.11127 12.5571C1.26449 12.7242 1.46563 12.8082 1.66678 12.8082C1.86792 12.8082 2.06907 12.7242 2.22228 12.5571L6.38111 8.02022L10.5399 12.5571C10.6932 12.7242 10.8943 12.8082 11.0954 12.8082C11.2966 12.8082 11.4977 12.7242 11.6509 12.5571C11.9582 12.2219 11.9582 11.6802 11.6509 11.3451L7.49212 6.80822Z" fill="#1E293B"/>
</svg>
