<svg width="20" height="20" viewBox="0 0 20 20" fill="none" xmlns="http://www.w3.org/2000/svg">
<path d="M16.6654 9.16667C16.6654 7.39856 15.963 5.70286 14.7127 4.45262C13.4625 3.20238 11.7668 2.5 9.9987 2.5C8.23059 2.5 6.53489 3.20238 5.28465 4.45262C4.03441 5.70286 3.33203 7.39856 3.33203 9.16667" stroke="#BFBFBF" stroke-width="1.5" stroke-linecap="round" stroke-linejoin="round"/>
<path d="M16.666 15V15.4167C16.666 15.8587 16.4904 16.2827 16.1779 16.5952C15.8653 16.9078 15.4414 17.0834 14.9993 17.0834H12.0827M1.66602 12.865V11.3017C1.66607 10.93 1.79035 10.5691 2.0191 10.2761C2.24785 9.98323 2.56795 9.77517 2.92852 9.68504L4.37852 9.32171C4.4522 9.30336 4.52909 9.30203 4.60336 9.31782C4.67763 9.33362 4.74732 9.36612 4.80716 9.41286C4.867 9.45961 4.9154 9.51937 4.9487 9.58761C4.982 9.65585 4.99932 9.73077 4.99935 9.80671V14.3592C4.99948 14.4353 4.98224 14.5104 4.94895 14.5788C4.91566 14.6473 4.86719 14.7072 4.80723 14.754C4.74728 14.8009 4.67742 14.8334 4.60298 14.8492C4.52854 14.865 4.45149 14.8636 4.37768 14.845L2.92768 14.4825C2.56727 14.3923 2.24736 14.1841 2.01877 13.8912C1.79019 13.5983 1.66603 13.2374 1.66602 12.8659V12.865ZM18.3327 12.865V11.3017C18.3326 10.93 18.2083 10.5691 17.9796 10.2761C17.7508 9.98323 17.4307 9.77517 17.0702 9.68504L15.6202 9.32171C15.5465 9.30336 15.4696 9.30203 15.3953 9.31782C15.3211 9.33362 15.2514 9.36612 15.1915 9.41286C15.1317 9.45961 15.0833 9.51937 15.05 9.58761C15.0167 9.65585 14.9994 9.73077 14.9993 9.80671V14.3592C14.9993 14.4352 15.0165 14.5102 15.0497 14.5786C15.083 14.6469 15.1314 14.7068 15.1912 14.7536C15.2511 14.8005 15.3208 14.833 15.3951 14.8489C15.4695 14.8647 15.5464 14.8634 15.6202 14.845L17.0702 14.4825C17.4307 14.3924 17.7508 14.1844 17.9796 13.8914C18.2083 13.5985 18.3326 13.2375 18.3327 12.8659V12.865Z" stroke="#BFBFBF" stroke-width="1.5"/>
<path d="M11.25 18.3334H8.75C8.41848 18.3334 8.10054 18.2017 7.86612 17.9673C7.6317 17.7328 7.5 17.4149 7.5 17.0834C7.5 16.7519 7.6317 16.4339 7.86612 16.1995C8.10054 15.9651 8.41848 15.8334 8.75 15.8334H11.25C11.5815 15.8334 11.8995 15.9651 12.1339 16.1995C12.3683 16.4339 12.5 16.7519 12.5 17.0834C12.5 17.4149 12.3683 17.7328 12.1339 17.9673C11.8995 18.2017 11.5815 18.3334 11.25 18.3334Z" stroke="#BFBFBF" stroke-width="1.5"/>
</svg>
