<svg width="68" height="68" viewBox="0 0 68 68" fill="none" xmlns="http://www.w3.org/2000/svg">
<g clip-path="url(#clip0_113_25073)">
<path d="M39.6667 25.5H28.3333C26.775 25.5 25.5 24.225 25.5 22.6667C25.5 21.1084 26.775 19.8334 28.3333 19.8334H39.6667C41.225 19.8334 42.5 21.1084 42.5 22.6667C42.5 24.225 41.225 25.5 39.6667 25.5Z" fill="#A1E3FF"/>
<path d="M39.6667 34H28.3333C26.775 34 25.5 32.725 25.5 31.1667C25.5 29.6084 26.775 28.3334 28.3333 28.3334H39.6667C41.225 28.3334 42.5 29.6084 42.5 31.1667C42.5 32.725 41.225 34 39.6667 34Z" fill="#A1E3FF"/>
<path d="M55.25 9.91669L51 5.66669L46.75 9.91669L42.5 5.66669L38.25 9.91669L34 5.66669L29.75 9.91669L25.5 5.66669L21.25 9.91669L17 5.66669V45.3334H11.3333C9.775 45.3334 8.5 46.6084 8.5 48.1667V53.8334C8.5 58.5367 12.2967 62.3334 17 62.3334H51C55.7033 62.3334 59.5 58.5367 59.5 53.8334V5.66669L55.25 9.91669ZM42.5 56.6667H17C15.4417 56.6667 14.1667 55.3917 14.1667 53.8334V51H22.6667H34H42.5V56.6667ZM53.8333 53.8334C53.8333 55.3917 52.5583 56.6667 51 56.6667C49.4417 56.6667 48.1667 55.3917 48.1667 53.8334V48.1667C48.1667 46.6084 46.8917 45.3334 45.3333 45.3334H39.6667H34H22.6667V14.1667H53.8333V53.8334Z" fill="#A1E3FF"/>
<path d="M48.1667 25.5C49.7315 25.5 51 24.2315 51 22.6667C51 21.1019 49.7315 19.8334 48.1667 19.8334C46.6019 19.8334 45.3334 21.1019 45.3334 22.6667C45.3334 24.2315 46.6019 25.5 48.1667 25.5Z" fill="#A1E3FF"/>
<path d="M48.1667 34C49.7315 34 51 32.7315 51 31.1667C51 29.6019 49.7315 28.3334 48.1667 28.3334C46.6019 28.3334 45.3334 29.6019 45.3334 31.1667C45.3334 32.7315 46.6019 34 48.1667 34Z" fill="#A1E3FF"/>
</g>
<defs>
<clipPath id="clip0_113_25073">
<rect width="68" height="68" fill="white"/>
</clipPath>
</defs>
</svg>
