<svg width="24" height="24" viewBox="0 0 24 24" fill="none" xmlns="http://www.w3.org/2000/svg">
<path d="M12.0206 2.90991C8.71058 2.90991 6.02058 5.59991 6.02058 8.90991V11.7999C6.02058 12.4099 5.76058 13.3399 5.45058 13.8599L4.30058 15.7699C3.59058 16.9499 4.08058 18.2599 5.38058 18.6999C9.69058 20.1399 14.3406 20.1399 18.6506 18.6999C19.8606 18.2999 20.3906 16.8699 19.7306 15.7699L18.5806 13.8599C18.2806 13.3399 18.0206 12.4099 18.0206 11.7999V8.90991C18.0206 5.60991 15.3206 2.90991 12.0206 2.90991Z" stroke="white" stroke-width="1.5" stroke-miterlimit="10" stroke-linecap="round"/>
<path d="M13.8699 3.19982C13.5599 3.10982 13.2399 3.03982 12.9099 2.99982C11.9499 2.87982 11.0299 2.94982 10.1699 3.19982C10.4599 2.45982 11.1799 1.93982 12.0199 1.93982C12.8599 1.93982 13.5799 2.45982 13.8699 3.19982Z" stroke="white" stroke-width="1.5" stroke-miterlimit="10" stroke-linecap="round" stroke-linejoin="round"/>
<path d="M15.0195 19.0599C15.0195 20.7099 13.6695 22.0599 12.0195 22.0599C11.1995 22.0599 10.4395 21.7199 9.89953 21.1799C9.35953 20.6399 9.01953 19.8799 9.01953 19.0599" stroke="white" stroke-width="1.5" stroke-miterlimit="10"/>
</svg>
