<svg width="20" height="20" viewBox="0 0 20 20" fill="none" xmlns="http://www.w3.org/2000/svg">
<path d="M9.55016 11.4416C10.8434 11.4416 11.8918 10.3932 11.8918 9.09997C11.8918 7.8067 10.8434 6.7583 9.55016 6.7583C8.25689 6.7583 7.2085 7.8067 7.2085 9.09997C7.2085 10.3932 8.25689 11.4416 9.55016 11.4416Z" stroke="#BFBFBF" stroke-width="1.5" stroke-linecap="round" stroke-linejoin="round"/>
<path d="M13.8751 16.8333C13.8751 14.8916 11.9418 13.3082 9.5501 13.3082C7.15843 13.3082 5.2251 14.8833 5.2251 16.8333" stroke="#BFBFBF" stroke-width="1.5" stroke-linecap="round" stroke-linejoin="round"/>
<path d="M17.4998 10.4167C17.4998 14.7917 13.9582 18.3333 9.58317 18.3333C5.20817 18.3333 1.6665 14.7917 1.6665 10.4167C1.6665 6.04167 5.20817 2.5 9.58317 2.5C10.6748 2.5 11.7165 2.71666 12.6665 3.11666C12.5582 3.44999 12.4998 3.8 12.4998 4.16667C12.4998 4.79167 12.6748 5.38333 12.9832 5.88333C13.1498 6.16666 13.3665 6.42498 13.6165 6.64164C14.1998 7.17498 14.9748 7.5 15.8332 7.5C16.1998 7.5 16.5498 7.44165 16.8748 7.32498C17.2748 8.27498 17.4998 9.325 17.4998 10.4167Z" stroke="#BFBFBF" stroke-width="1.5" stroke-linecap="round" stroke-linejoin="round"/>
<path d="M19.1667 4.16671C19.1667 4.43337 19.1333 4.6917 19.0667 4.9417C18.9917 5.27503 18.8583 5.60004 18.6833 5.88337C18.2833 6.55837 17.6417 7.08336 16.875 7.32502C16.55 7.44169 16.2 7.50004 15.8333 7.50004C14.975 7.50004 14.2 7.17502 13.6167 6.64168C13.3667 6.42502 13.15 6.16671 12.9833 5.88337C12.675 5.38337 12.5 4.79171 12.5 4.16671C12.5 3.80004 12.5583 3.45003 12.6667 3.1167C12.825 2.63337 13.0917 2.20006 13.4417 1.84173C14.05 1.21673 14.9 0.833374 15.8333 0.833374C16.8167 0.833374 17.7083 1.25839 18.3083 1.94172C18.8417 2.53339 19.1667 3.31671 19.1667 4.16671Z" stroke="#BFBFBF" stroke-width="1.5" stroke-miterlimit="10" stroke-linecap="round" stroke-linejoin="round"/>
<path d="M17.0751 4.15002H14.5918" stroke="#BFBFBF" stroke-width="1.5" stroke-miterlimit="10" stroke-linecap="round" stroke-linejoin="round"/>
<path d="M15.8335 2.93335V5.42501" stroke="#BFBFBF" stroke-width="1.5" stroke-miterlimit="10" stroke-linecap="round" stroke-linejoin="round"/>
</svg>
